<svg width="35" height="35" viewBox="0 0 35 35" fill="none" xmlns="http://www.w3.org/2000/svg">
<path fill-rule="evenodd" clip-rule="evenodd" d="M17.5 6.5625C16.5939 6.5625 15.8594 7.29703 15.8594 8.20313C15.8594 9.10922 16.5939 9.84375 17.5 9.84375C18.4061 9.84375 19.1406 9.10922 19.1406 8.20313C19.1406 7.29703 18.4061 6.5625 17.5 6.5625ZM20.2344 8.20313C20.2344 6.69297 19.0102 5.46875 17.5 5.46875C15.9898 5.46875 14.7656 6.69297 14.7656 8.20313C14.7656 9.71328 15.9898 10.9375 17.5 10.9375C19.0102 10.9375 20.2344 9.71328 20.2344 8.20313ZM17.5 25.1562C16.5939 25.1562 15.8594 25.8908 15.8594 26.7969C15.8594 27.703 16.5939 28.4375 17.5 28.4375C18.4061 28.4375 19.1406 27.703 19.1406 26.7969C19.1406 25.8908 18.4061 25.1562 17.5 25.1562ZM20.2344 26.7969C20.2344 25.2867 19.0102 24.0625 17.5 24.0625C15.9898 24.0625 14.7656 25.2867 14.7656 26.7969C14.7656 28.307 15.9898 29.5313 17.5 29.5313C19.0102 29.5313 20.2344 28.307 20.2344 26.7969ZM15.8594 17.5C15.8594 16.5939 16.5939 15.8594 17.5 15.8594C18.4061 15.8594 19.1406 16.5939 19.1406 17.5C19.1406 18.4061 18.4061 19.1406 17.5 19.1406C16.5939 19.1406 15.8594 18.4061 15.8594 17.5ZM17.5 14.7656C19.0102 14.7656 20.2344 15.9898 20.2344 17.5C20.2344 19.0102 19.0102 20.2344 17.5 20.2344C15.9898 20.2344 14.7656 19.0102 14.7656 17.5C14.7656 15.9898 15.9898 14.7656 17.5 14.7656Z" fill="white"/>
</svg>
