<svg width="7" height="25" viewBox="0 0 7 25" fill="none" xmlns="http://www.w3.org/2000/svg">
<path fill-rule="evenodd" clip-rule="evenodd" d="M3.5 1.5625C2.59391 1.5625 1.85937 2.29703 1.85937 3.20313C1.85937 4.10922 2.59391 4.84375 3.5 4.84375C4.40609 4.84375 5.14062 4.10922 5.14062 3.20313C5.14062 2.29703 4.40609 1.5625 3.5 1.5625ZM6.23437 3.20313C6.23437 1.69297 5.01015 0.46875 3.5 0.46875C1.98985 0.46875 0.765623 1.69297 0.765623 3.20313C0.765623 4.71328 1.98985 5.9375 3.5 5.9375C5.01015 5.9375 6.23437 4.71328 6.23437 3.20313ZM3.5 20.1562C2.59391 20.1562 1.85937 20.8908 1.85937 21.7969C1.85937 22.703 2.59391 23.4375 3.5 23.4375C4.40609 23.4375 5.14062 22.703 5.14062 21.7969C5.14062 20.8908 4.40609 20.1562 3.5 20.1562ZM6.23437 21.7969C6.23437 20.2867 5.01015 19.0625 3.5 19.0625C1.98984 19.0625 0.765622 20.2867 0.765622 21.7969C0.765622 23.307 1.98984 24.5313 3.5 24.5313C5.01015 24.5313 6.23437 23.307 6.23437 21.7969ZM1.85937 12.5C1.85937 11.5939 2.59391 10.8594 3.5 10.8594C4.40609 10.8594 5.14062 11.5939 5.14062 12.5C5.14062 13.4061 4.40609 14.1406 3.5 14.1406C2.59391 14.1406 1.85937 13.4061 1.85937 12.5ZM3.5 9.76562C5.01015 9.76562 6.23437 10.9898 6.23437 12.5C6.23437 14.0102 5.01015 15.2344 3.5 15.2344C1.98984 15.2344 0.765623 14.0102 0.765623 12.5C0.765623 10.9898 1.98984 9.76562 3.5 9.76562Z" fill="white"/>
</svg>
